<svg xmlns="http://www.w3.org/2000/svg" viewBox="0 0 389.09 379.48"><defs><style>.cls-1,.cls-2{fill:#191717;}.cls-1{fill-rule:evenodd;}</style></defs><g id="Layer_2" data-name="Layer 2"><g id="Layer_1-2" data-name="Layer 1"><path class="cls-1" d="M194.54,0C87.11,0,0,87.1,0,194.54a194.58,194.58,0,0,0,133,184.6c9.72,1.8,13.29-4.22,13.29-9.36,0-4.63-.18-20-.26-36.22C92,345.33,80.53,310.61,80.53,310.61c-8.85-22.48-21.6-28.46-21.6-28.46-17.66-12.08,1.33-11.83,1.33-11.83,19.53,1.37,29.82,20.05,29.82,20.05,17.35,29.74,45.51,21.14,56.61,16.17,1.75-12.57,6.79-21.16,12.35-26-43.21-4.91-88.63-21.6-88.63-96.14,0-21.24,7.6-38.59,20-52.22-2-4.9-8.68-24.68,1.89-51.48,0,0,16.33-5.23,53.51,19.94a184.43,184.43,0,0,1,97.43,0c37.13-25.17,53.44-19.94,53.44-19.94,10.59,26.8,3.93,46.58,1.91,51.48,12.48,13.63,20,31,20,52.22,0,74.72-45.52,91.17-88.84,96,7,6,13.2,17.88,13.2,36,0,26-.23,47-.23,53.38,0,5.18,3.51,11.25,13.37,9.34A194.57,194.57,0,0,0,389.09,194.54C389.09,87.1,302,0,194.54,0Z"/><path class="cls-2" d="M73.68,279.32c-.42,1-2,1.26-3.33.59s-2.2-2-1.75-2.92,1.94-1.27,3.35-.61,2.22,2,1.73,2.94Z"/><path class="cls-2" d="M81.56,288.11c-.92.86-2.74.46-4-.9s-1.51-3.17-.57-4,2.72-.46,4,.9,1.52,3.17.55,4Z"/><path class="cls-2" d="M89.24,299.31c-1.2.83-3.15.06-4.35-1.67s-1.2-3.81,0-4.64,3.12-.08,4.34,1.63,1.19,3.84,0,4.68Z"/><path class="cls-2" d="M99.74,310.14c-1.06,1.18-3.34.86-5-.75s-2.17-3.79-1.1-5,3.36-.84,5,.75,2.2,3.8,1.06,5Z"/><path class="cls-2" d="M114.24,316.42c-.47,1.53-2.66,2.22-4.86,1.57s-3.64-2.45-3.2-4,2.66-2.25,4.88-1.56,3.64,2.43,3.18,4Z"/><path class="cls-2" d="M130.16,317.59c.06,1.6-1.81,2.93-4.13,3s-4.2-1.24-4.23-2.82,1.83-2.94,4.15-3,4.21,1.25,4.21,2.84Z"/><path class="cls-2" d="M145,315.07c.27,1.56-1.33,3.17-3.63,3.6s-4.35-.56-4.64-2.11,1.36-3.21,3.61-3.62,4.36.54,4.66,2.13Z"/></g></g></svg>